<svg width="36" height="36" viewBox="0 0 36 36" fill="none" xmlns="http://www.w3.org/2000/svg">
<path d="M29.9883 25.4883V10.5117C29.9883 9.69141 29.6719 8.91797 29.0391 8.19141C28.4062 7.46484 27.5391 6.82617 26.4375 6.27539C25.3359 5.72461 24.0586 5.29688 22.6055 4.99219C21.1523 4.66406 19.6172 4.5 18 4.5C16.3828 4.5 14.8477 4.66406 13.3945 4.99219C11.9414 5.29688 10.6641 5.72461 9.5625 6.27539C8.46094 6.82617 7.59375 7.46484 6.96094 8.19141C6.32812 8.91797 6.01172 9.69141 6.01172 10.5117V25.4883C6.01172 26.3086 6.32812 27.082 6.96094 27.8086C7.59375 28.5352 8.46094 29.1738 9.5625 29.7246C10.6641 30.2754 11.9414 30.7031 13.3945 31.0078C14.8477 31.3359 16.3828 31.5 18 31.5C19.6172 31.5 21.1523 31.3359 22.6055 31.0078C24.0586 30.7031 25.3359 30.2754 26.4375 29.7246C27.5391 29.1738 28.4062 28.5352 29.0391 27.8086C29.6719 27.082 29.9883 26.3086 29.9883 25.4883ZM18 7.48828C20.7656 7.48828 22.9453 7.89844 24.5391 8.71875C26.1328 9.53906 26.9531 10.125 27 10.4766C26.9531 10.8516 26.1328 11.4492 24.5391 12.2695C22.9453 13.0898 20.7656 13.5 18 13.5C15.2344 13.5 13.0547 13.0957 11.4609 12.2871C9.86719 11.4785 9.04688 10.8867 9 10.5117C9.04688 10.1367 9.86719 9.53906 11.4609 8.71875C13.0547 7.89844 15.2344 7.48828 18 7.48828ZM9 14.4141C10.1016 15.0469 11.4316 15.5508 12.9902 15.9258C14.5488 16.3008 16.2188 16.4883 18 16.4883C19.7812 16.4883 21.4512 16.3008 23.0098 15.9258C24.5684 15.5508 25.8984 15.0469 27 14.4141V18C26.9531 18.375 26.1328 18.9668 24.5391 19.7754C22.9453 20.584 20.7656 20.9883 18 20.9883C15.2344 20.9883 13.0547 20.584 11.4609 19.7754C9.86719 18.9668 9.04688 18.375 9 18V14.4141ZM9 25.4883V21.9023C10.1016 22.5352 11.4316 23.0449 12.9902 23.4316C14.5488 23.8184 16.2188 24.0117 18 24.0117C19.7812 24.0117 21.4512 23.8184 23.0098 23.4316C24.5684 23.0449 25.8984 22.5352 27 21.9023V25.4883C26.9531 25.8633 26.1328 26.4609 24.5391 27.2812C22.9453 28.1016 20.7656 28.5117 18 28.5117C15.2344 28.5117 13.0547 28.1016 11.4609 27.2812C9.86719 26.4609 9.04688 25.8633 9 25.4883Z" fill="#03235E"/>
</svg>
