<svg width="35" height="35" viewBox="0 0 35 35" fill="none" xmlns="http://www.w3.org/2000/svg">
<path d="M26.0714 28.965H8.90576C8.36971 28.965 7.93164 29.3972 7.93164 29.9391C7.93164 30.4751 8.364 30.9132 8.90576 30.9132H26.0772C26.6133 30.9132 27.0514 30.4808 27.0514 29.9391C27.0456 29.3972 26.6133 28.965 26.0714 28.965Z" fill="white"/>
<path d="M26.0714 24.6995H8.90576C8.36971 24.6995 7.93164 25.1317 7.93164 25.6736C7.93164 26.2096 8.364 26.6477 8.90576 26.6477H26.0772C26.6133 26.6477 27.0514 26.2153 27.0514 25.6736C27.0456 25.1318 26.6133 24.6995 26.0714 24.6995Z" fill="white"/>
<path d="M17.4884 4.08679C15.1827 4.08679 13.2979 5.96593 13.2979 8.27734C13.2979 10.583 15.1827 12.4621 17.4884 12.4621C19.7941 12.4621 21.679 10.583 21.679 8.27155C21.679 5.96014 19.7941 4.08679 17.4884 4.08679ZM17.4884 10.5082C16.2606 10.5082 15.2519 9.49943 15.2519 8.27164C15.2519 7.04384 16.2548 6.03512 17.4884 6.03512C18.722 6.03512 19.7249 7.04384 19.7249 8.27164C19.7249 9.49934 18.7162 10.5082 17.4884 10.5082Z" fill="white"/>
<path d="M23.051 14.5661C19.4945 13.1827 15.4941 13.1827 11.9377 14.5661C10.7733 15.0215 9.99517 16.1801 9.99517 17.454V21.4081C9.98938 21.9442 10.4275 22.3823 10.9636 22.3823H24.0194C24.5555 22.3823 24.9935 21.95 24.9935 21.4081V17.454C24.9935 16.1801 24.2154 15.0215 23.051 14.5661ZM23.051 20.4397H11.9377V17.4597C11.9377 16.987 12.2202 16.5489 12.641 16.3876C15.7478 15.1829 19.2409 15.1829 22.3478 16.3876C22.7686 16.5547 23.0511 16.9813 23.0511 17.4597V20.4397H23.051Z" fill="white"/>
<path d="M27.9161 0H11.7245C10.9752 0 10.2719 0.28818 9.74166 0.81853L5.08415 5.47595C4.55389 6.0063 4.26562 6.70945 4.26562 7.45879V32.187C4.26562 33.7376 5.52802 34.9999 7.0785 34.9999H27.9218C29.4723 34.9999 30.7346 33.7375 30.7346 32.187V2.81287C30.7174 1.26239 29.455 0 27.9161 0ZM9.98945 3.32013V5.72953H7.58005L9.98945 3.32013ZM28.7749 10.4158H25.155C24.6189 10.4158 24.1809 10.8482 24.1809 11.39C24.1809 11.926 24.6131 12.3641 25.155 12.3641H28.7749V14.0933H27.4491C26.913 14.0933 26.475 14.5256 26.475 15.0675C26.475 15.6035 26.9073 16.0416 27.4491 16.0416H28.7749V32.1927C28.7749 32.6712 28.3887 33.0574 27.9161 33.0574H7.06129C6.58863 33.0574 6.20246 32.6712 6.20246 32.1985V7.67207H10.9637C11.4997 7.67207 11.9378 7.2398 11.9378 6.69795V1.93674H27.9161C28.3887 1.93674 28.7749 2.32291 28.7749 2.79557V10.4158Z" fill="white"/>
</svg>
