<svg width="30" height="29" viewBox="0 0 30 29" fill="none" xmlns="http://www.w3.org/2000/svg">
<path d="M14.5342 0.105225C12.529 0.105225 10.6377 0.492596 8.86035 1.26733C7.10579 2.01929 5.56771 3.05607 4.24609 4.37769C2.92448 5.6993 1.8877 7.23739 1.13574 8.99194C0.383789 10.7693 0.0078125 12.6606 0.0078125 14.6658C0.0078125 16.2608 0.24707 17.7875 0.725586 19.2458C1.22689 20.7042 1.91618 22.0372 2.79346 23.2449C3.67074 24.4526 4.72461 25.5007 5.95508 26.3894C7.16276 27.3009 8.49577 27.9958 9.9541 28.4744C10.3187 28.5427 10.575 28.4915 10.7231 28.3206C10.8713 28.1497 10.9453 27.9617 10.9453 27.7566C10.9453 27.5971 10.9396 27.2952 10.9282 26.8508C10.9168 26.4065 10.9111 25.8881 10.9111 25.2957C8.88314 25.7286 7.56152 25.5121 6.94629 24.6462C6.33105 23.7804 6.02344 23.3474 6.02344 23.3474C5.68164 22.5043 5.32275 21.9403 4.94678 21.6555C4.5708 21.3707 4.38281 21.2283 4.38281 21.2283C3.72201 20.7725 3.57389 20.5105 3.93848 20.4421C4.30306 20.3738 4.48535 20.3396 4.48535 20.3396C5.21452 20.3852 5.77279 20.6472 6.16016 21.1257C6.54753 21.6042 6.74121 21.8435 6.74121 21.8435C7.37923 22.9373 8.13688 23.4556 9.01416 23.3987C9.89144 23.3417 10.5352 23.2221 10.9453 23.0398C11.0137 22.5613 11.1333 22.1625 11.3042 21.8435C11.4751 21.5245 11.6631 21.2738 11.8682 21.0916C10.2731 20.9093 8.7749 20.3624 7.37354 19.4509C5.97217 18.5395 5.27148 16.6938 5.27148 13.9138C5.27148 13.1163 5.40251 12.3928 5.66455 11.7434C5.9266 11.094 6.28548 10.5186 6.74121 10.0173C6.67285 9.81226 6.58171 9.36792 6.46777 8.68433C6.35384 8.00073 6.50195 7.15763 6.91211 6.15503C6.91211 6.15503 7.23112 6.16642 7.86914 6.18921C8.50716 6.212 9.52116 6.69051 10.9111 7.62476C11.458 7.48804 12.0391 7.37411 12.6543 7.28296C13.2695 7.19181 13.8962 7.14624 14.5342 7.14624C15.195 7.14624 15.833 7.19181 16.4482 7.28296C17.0635 7.37411 17.6673 7.49943 18.2598 7.65894L18.1914 7.62476C19.5814 6.69051 20.5954 6.212 21.2334 6.18921C21.8714 6.16642 22.1904 6.15503 22.1904 6.15503C22.5778 7.15763 22.7145 8.00073 22.6006 8.68433C22.4867 9.36792 22.3955 9.81226 22.3271 10.0173C22.7829 10.5186 23.1418 11.094 23.4038 11.7434C23.6659 12.3928 23.7969 13.1163 23.7969 13.9138C23.7969 16.6938 23.0962 18.5395 21.6948 19.4509C20.2935 20.3624 18.7839 20.9093 17.166 21.0916C17.4395 21.3194 17.673 21.6555 17.8667 22.0999C18.0604 22.5442 18.1572 23.0968 18.1572 23.7576C18.1572 24.7374 18.1572 25.5919 18.1572 26.321C18.1572 27.0502 18.1572 27.5287 18.1572 27.7566C18.1572 27.9617 18.2313 28.1497 18.3794 28.3206C18.5275 28.4915 18.7839 28.5427 19.1484 28.4744C20.584 27.9731 21.917 27.2781 23.1475 26.3894C24.3551 25.5007 25.3976 24.4526 26.2749 23.2449C27.1522 22.0372 27.8415 20.7042 28.3428 19.2458C28.8441 17.7875 29.0947 16.2608 29.0947 14.6658C29.0947 12.6606 28.7074 10.7693 27.9326 8.99194C27.1807 7.23739 26.1439 5.6993 24.8223 4.37769C23.5007 3.05607 21.9626 2.01929 20.208 1.26733C18.4307 0.492596 16.5394 0.105225 14.5342 0.105225Z" fill="white"/>
</svg>
