<svg width="17" height="17" viewBox="0 0 17 17" fill="none" xmlns="http://www.w3.org/2000/svg">
<g clip-path="url(#clip0_46_168)">
<path d="M10.1525 15.1695V12.5028C10.2453 11.6677 10.0058 10.8296 9.48586 10.1695C11.4859 10.1695 13.4859 8.83618 13.4859 6.50285C13.5392 5.66952 13.3059 4.84952 12.8192 4.16952C13.0059 3.40285 13.0059 2.60285 12.8192 1.83618C12.8192 1.83618 12.1525 1.83618 10.8192 2.83618C9.0592 2.50285 7.24586 2.50285 5.48586 2.83618C4.15253 1.83618 3.48586 1.83618 3.48586 1.83618C3.28586 2.60285 3.28586 3.40285 3.48586 4.16952C3.00045 4.84677 2.76485 5.67137 2.8192 6.50285C2.8192 8.83618 4.8192 10.1695 6.8192 10.1695C6.5592 10.4962 6.36586 10.8695 6.25253 11.2695C6.1392 11.6695 6.10586 12.0895 6.15253 12.5028V15.1695" stroke="#020817" stroke-width="1.33333" stroke-linecap="round" stroke-linejoin="round"/>
<path d="M6.15251 12.503C3.14584 13.8363 2.81917 11.1697 1.48584 11.1697" stroke="#020817" stroke-width="1.33333" stroke-linecap="round" stroke-linejoin="round"/>
</g>
<defs>
<clipPath id="clip0_46_168">
<rect width="16" height="16" fill="white" transform="translate(0.152344 0.50293)"/>
</clipPath>
</defs>
</svg>
