<svg width="36" height="36" viewBox="0 0 36 36" fill="none" xmlns="http://www.w3.org/2000/svg">
<path d="M33.75 2.25H2.25V33.75H33.75V2.25Z" fill="#FFCA28"/>
<path d="M21.375 28.4488L23.6942 26.914C23.876 27.4851 25.027 28.8413 26.4808 28.8413C27.9346 28.8413 28.6096 28.0472 28.6096 27.5207C28.6096 26.0861 27.1251 25.5803 26.4121 25.3375C26.2957 25.2979 26.2001 25.2652 26.1347 25.2368C26.101 25.2221 26.0503 25.2027 25.9851 25.1778C25.1921 24.8749 22.2663 23.7571 22.2663 20.5168C22.2663 16.948 25.7105 16.5376 26.4895 16.5376C26.999 16.5376 29.449 16.6 30.6692 18.893L28.4192 20.4634C27.926 19.4641 27.1064 19.134 26.602 19.134C25.3558 19.134 25.0962 20.0475 25.0962 20.4634C25.0962 21.6302 26.4501 22.1533 27.5932 22.5948C27.8923 22.7104 28.177 22.8203 28.4192 22.9348C29.6653 23.5236 31.5 24.4873 31.5 27.5207C31.5 29.0402 30.2256 31.5001 27.0173 31.5001C22.7077 31.5001 21.5653 28.9127 21.375 28.4488Z" fill="#3E3E3E"/>
<path d="M10.125 28.7533L12.5423 27.2195C12.7316 27.7902 13.4677 28.8425 14.5356 28.8425C15.6035 28.8425 16.1502 27.7456 16.1502 27.2195V16.875H19.123V27.2195C19.1711 28.6463 18.3798 31.5 14.8874 31.5C11.6764 31.5 10.3415 29.5917 10.125 28.7533Z" fill="#3E3E3E"/>
</svg>
