<svg width="27" height="27" viewBox="0 0 27 27" fill="none" xmlns="http://www.w3.org/2000/svg">
<path d="M6.45898 3.5144C6.45898 4.38029 6.14567 5.12655 5.51904 5.75317C4.89242 6.3798 4.14616 6.69312 3.28027 6.69312C2.3916 6.69312 1.63395 6.3798 1.00732 5.75317C0.380697 5.12655 0.0673828 4.38029 0.0673828 3.5144C0.0673828 2.62573 0.380697 1.86808 1.00732 1.24146C1.63395 0.614828 2.3916 0.301514 3.28027 0.301514C4.14616 0.301514 4.89242 0.614828 5.51904 1.24146C6.14567 1.86808 6.45898 2.62573 6.45898 3.5144ZM9.4668 9.11987V26.825H14.9697V18.075C14.9697 16.9128 15.1634 15.8647 15.5508 14.9304C15.9382 13.9962 16.8382 13.5291 18.251 13.5291C19.6637 13.5291 20.4954 14.0531 20.7461 15.1013C20.9967 16.1495 21.1221 17.1863 21.1221 18.2117V26.825H26.625V17.1179C26.625 14.7253 26.2205 12.7201 25.4116 11.1023C24.6027 9.48446 22.8083 8.67554 20.0283 8.67554C18.6839 8.67554 17.5731 8.97746 16.6958 9.5813C15.8185 10.1851 15.1976 10.8403 14.833 11.5466H14.7305V9.11987H9.4668ZM0.511719 9.11987H6.01465V26.825H0.511719V9.11987Z" fill="white"/>
</svg>
