<svg width="36" height="36" viewBox="0 0 36 36" fill="none" xmlns="http://www.w3.org/2000/svg">
<g clip-path="url(#clip0_46_281)">
<path fill-rule="evenodd" clip-rule="evenodd" d="M21.475 2.25C21.2276 2.25281 20.9822 2.29631 20.7489 2.37875C22.823 3.74092 20.3884 5.71851 21.5214 7.39997C21.4421 6.83712 21.5314 6.2634 21.778 5.75126C22.0245 5.23912 22.4173 4.81151 22.9067 4.52243C23.2737 4.21729 23.508 4.10785 23.4294 3.60316C23.3058 2.77658 22.2037 2.25 21.475 2.25ZM24.4363 2.78302C24.1504 4.22888 23.7925 4.28167 22.7329 5.21252C22.3192 5.53803 22.0272 5.99334 21.9038 6.50509C21.7805 7.01684 21.8331 7.5552 22.0531 8.03342C17.6756 6.33393 12.0647 5.30651 7.95119 8.24715C6.47186 9.30418 5.56804 10.8221 3.74366 11.4414C2.56432 11.8444 1.40558 11.726 0.669129 12.895C0.398849 13.2326 0.257657 13.6554 0.270869 14.0876C0.284082 14.5199 0.450835 14.9333 0.741228 15.2537C0.960102 15.479 1.38497 15.6232 1.56007 15.8524C1.66179 15.9811 1.65921 16.1099 1.75577 16.2811C1.92602 16.6804 2.17269 17.0425 2.48192 17.3471C2.66989 17.5029 3.32137 17.6549 3.43209 17.8209C3.56985 18.0282 3.20935 18.8509 3.51191 18.9797C3.71663 19.0737 4.31274 18.0218 4.37067 17.9291C4.25222 18.757 4.09644 20.226 5.02729 19.0029C5.4689 18.4222 5.49594 18.2304 6.23883 18.1016C7.70499 17.8505 9.2073 17.906 10.6509 18.2647C12.0946 18.6233 13.4482 19.2773 14.6264 20.1853C15.8046 21.0934 16.7818 22.2358 17.4963 23.5405C18.2108 24.8452 18.6471 26.2838 18.7777 27.7655C18.6387 27.1218 17.7979 26.0918 17.0151 26.3364C16.6817 26.4394 16.5581 27.0149 16.3392 27.3484C16.0629 27.7715 15.7218 28.1486 15.3285 28.4659C15.3957 27.8418 15.3644 27.211 15.2358 26.5965C15.0015 27.5595 14.5316 29.1573 13.3484 28.8985C12.9542 28.8384 12.5849 28.6686 12.2826 28.4086C11.9803 28.1487 11.7571 27.8089 11.6386 27.4282C11.4854 26.4497 12.5192 25.3026 10.8571 25.2215C7.52246 25.0579 8.29367 29.962 10.2622 31.2405C9.80982 31.2905 9.36849 31.4136 8.95544 31.6049C10.2049 32.3309 11.6129 32.7409 13.0569 32.7991C14.5008 32.8573 15.9372 32.562 17.2411 31.9389C18.545 31.3158 19.677 30.3836 20.5387 29.2235C21.4005 28.0633 21.9658 26.7103 22.1857 25.282C22.6443 27.3714 22.3497 29.5557 21.354 31.4491C20.9373 32.2406 20.4034 32.9646 19.7704 33.5966C19.3841 33.9829 18.6194 34.4077 18.3683 34.8081C19.9308 34.6015 21.4578 34.1822 22.9067 33.5618C21.407 35.6055 19.4137 37.2356 17.113 38.2998C19.5834 38.1249 21.9714 37.3379 24.0617 36.0098C26.1521 34.6817 27.8789 32.8541 29.0867 30.692C28.7018 32.8545 27.847 34.9061 26.5825 36.702C28.2832 35.5635 29.7301 34.0856 30.8324 32.3612C31.9347 30.6367 32.6685 28.703 32.9878 26.6815C33.3042 28.1614 33.3949 29.6807 33.2569 31.1877C34.6544 29.2467 35.5986 27.0169 36.02 24.6625C36.4413 22.3082 36.3291 19.8893 35.6915 17.584C35.2036 15.7922 34.4719 14.0758 33.517 12.483C33.1474 11.8623 32.7429 11.2631 32.3054 10.6882C32.1342 10.4655 31.2188 9.65051 31.2188 9.40074C31.2111 9.42563 31.2046 9.42563 31.1995 9.40074C31.1995 13.6057 26.6932 16.2386 22.9196 15.1468C24.3804 15.0322 25.7584 14.4226 26.8258 13.4188C27.8933 12.415 28.5864 11.0771 28.7906 9.62605C28.9628 8.15877 28.6239 6.67697 27.8309 5.43045C27.038 4.18393 25.8382 3.24891 24.4363 2.78302Z" fill="url(#paint0_linear_46_281)"/>
<path d="M14.4698 30.5034L16.3486 29.3784C16.446 29.7033 16.6384 29.9915 16.9011 30.206C17.1637 30.4206 17.4846 30.5516 17.8223 30.5822C18.5761 30.5822 19.0598 30.2897 19.0598 29.1309V21.2559H21.3098V29.1309C21.358 29.5389 21.3254 29.9523 21.2138 30.3476C21.1022 30.7428 20.9138 31.1123 20.6595 31.4348C20.4051 31.7573 20.0897 32.0265 19.7312 32.2271C19.3728 32.4277 18.9784 32.5557 18.5704 32.6038C18.3368 32.6297 18.101 32.6297 17.8673 32.6038C17.1466 32.6423 16.4312 32.462 15.8148 32.0866C15.1984 31.7111 14.71 31.1581 14.4136 30.5001M22.6148 30.2526L24.4936 29.1276C24.7013 29.5468 25.022 29.8995 25.4196 30.146C25.8172 30.3925 26.2758 30.5229 26.7436 30.5226C27.0852 30.6076 27.4466 30.5537 27.7485 30.3725C28.0503 30.1913 28.2679 29.8977 28.3534 29.5562C28.3613 29.5224 28.3692 29.4887 28.3748 29.4538C28.3748 28.6663 27.7448 28.3288 26.6986 27.9238L26.1248 27.6752C24.4598 26.9664 23.3573 26.0777 23.3573 24.1989C23.3639 23.3818 23.6946 22.6007 24.2768 22.0273C24.8591 21.4539 25.6452 21.1352 26.4623 21.1412C26.5534 21.1412 26.6434 21.1412 26.7346 21.1547C27.4017 21.1031 28.0691 21.2509 28.652 21.5794C29.2349 21.9079 29.707 22.4023 30.0083 22.9997L28.2196 24.1247C28.1026 23.8279 27.8976 23.574 27.6322 23.397C27.3667 23.2201 27.0535 23.1285 26.7346 23.1347C26.6041 23.1183 26.4717 23.1278 26.3449 23.1627C26.2181 23.1975 26.0994 23.2571 25.9957 23.3378C25.8919 23.4186 25.8051 23.5191 25.7402 23.6334C25.6753 23.7478 25.6336 23.8738 25.6174 24.0043C25.612 24.0442 25.6094 24.0844 25.6096 24.1247C25.6096 24.8109 26.0371 25.0922 27.0271 25.5197L27.6008 25.7672C29.4998 26.6109 30.6248 27.4659 30.6248 29.4009C30.6248 31.3359 28.9936 32.6072 26.8111 32.6072C25.9593 32.6623 25.1098 32.4696 24.3651 32.0523C23.6205 31.6351 23.0126 31.0112 22.6148 30.2559" fill="#F7DF1E"/>
</g>
<defs>
<linearGradient id="paint0_linear_46_281" x1="18.2679" y1="38.2998" x2="18.2679" y2="2.25" gradientUnits="userSpaceOnUse">
<stop stop-color="#FFB199"/>
<stop offset="1" stop-color="#FF0844"/>
</linearGradient>
<clipPath id="clip0_46_281">
<rect width="36" height="36" fill="white"/>
</clipPath>
</defs>
</svg>
