<svg width="36" height="36" viewBox="0 0 36 36" fill="none" xmlns="http://www.w3.org/2000/svg">
<path d="M19.3191 2.58606C18.5205 2.13697 17.4795 2.13899 16.6803 2.58606C12.6775 4.79506 8.67467 7.00471 4.67118 9.2127C3.89215 9.62252 3.36672 10.4591 3.3751 11.3274V24.6744C3.36947 25.5597 3.922 26.4043 4.72112 26.8085C5.87105 27.4203 6.98827 28.0942 8.15899 28.6652C9.51132 29.3298 11.2032 29.4767 12.5721 28.7837C13.6833 28.2094 14.1768 26.9319 14.1753 25.758C14.1843 21.3532 14.1768 16.9482 14.1788 12.5433C14.2053 12.3476 14.0582 12.1383 13.8447 12.143C13.3332 12.1349 12.8209 12.1383 12.3094 12.1417C12.1161 12.1235 11.9275 12.284 11.9421 12.4783C11.9352 16.8548 11.9434 21.2326 11.9379 25.6097C11.9491 26.2152 11.54 26.7971 10.9565 27.0016C9.60885 27.474 5.76223 24.9764 5.76223 24.9764C5.62106 24.911 5.53142 24.7579 5.54526 24.6058C5.54526 20.2023 5.54594 15.7987 5.54526 11.3959C5.52585 11.2184 5.63526 11.0585 5.79827 10.9861C9.78787 8.79008 13.7754 6.58861 17.765 4.39128C17.9036 4.2988 18.0967 4.29908 18.235 4.39196C22.2246 6.58861 26.2128 8.78806 30.2031 10.9841C30.3667 11.0565 30.4714 11.2191 30.4548 11.3959C30.4541 15.7987 30.4561 20.2023 30.4534 24.6052C30.4652 24.761 30.3847 24.912 30.2392 24.9804C26.2869 27.1645 22.2895 29.2781 18.3729 31.5257C18.202 31.6236 18.0084 31.7347 17.817 31.6267C16.787 31.057 15.7696 30.4651 14.743 29.8899C14.6314 29.8203 14.4893 29.7903 14.3729 29.8683C13.9126 30.1109 13.4797 30.3073 12.9512 30.5165C12.2089 30.8104 12.3275 30.9305 12.997 31.3206C14.1975 32 15.4 32.6766 16.6005 33.3567C17.3908 33.8499 18.4527 33.885 19.2684 33.4293C23.2719 31.223 27.274 29.0142 31.2783 26.808C32.0752 26.4015 32.6305 25.5602 32.6249 24.6743V11.3274C32.6326 10.4767 32.1273 9.65506 31.3717 9.23917C27.355 7.01941 23.3364 4.80447 19.3191 2.58606Z" fill="#8CC84B"/>
<path d="M25.3598 12.6071C23.7885 11.7665 21.9192 11.7217 20.1731 11.8316C18.9116 11.9563 17.5849 12.3044 16.6659 13.2086C15.7232 14.1176 15.518 15.5855 15.9658 16.7722C16.2866 17.6108 17.0943 18.156 17.9295 18.4445C19.0053 18.8243 20.1353 18.9417 21.2655 19.0592C22.2965 19.1663 23.3278 19.2735 24.3187 19.5798C24.7235 19.7139 25.1948 19.9191 25.3188 20.3596C25.4333 20.8811 25.3078 21.4874 24.8843 21.8498C23.5393 22.9143 19.7978 22.7512 18.4688 21.9133C17.9315 21.5564 17.7 20.9244 17.6058 20.3222C17.5953 20.1346 17.4443 19.9625 17.2405 19.9767C16.7303 19.9707 16.2201 19.972 15.71 19.9761C15.532 19.9611 15.3469 20.0878 15.3371 20.2695C15.2323 23.0276 17.7654 24.23 20.142 24.4947C21.4998 24.6241 22.8873 24.6167 24.2244 24.3253C25.2295 24.0965 26.2373 23.6751 26.9291 22.901C27.7823 21.9601 27.9501 20.5594 27.5675 19.3875C27.275 18.513 26.439 17.9521 25.5844 17.6635C24.4223 17.265 23.0451 17.0508 21.9925 16.9506C20.4626 16.8049 18.6446 16.8644 18.2116 15.8591C18.0389 15.3327 18.1859 14.6791 18.6696 14.3553C19.9495 13.4872 22.5545 13.6025 23.8799 14.2511C24.4886 14.5558 24.8412 15.1818 24.9868 15.8137C25.0138 15.9993 25.1387 16.193 25.3536 16.1849C25.8603 16.1951 26.367 16.1876 26.8736 16.1883C27.0476 16.2005 27.2382 16.1022 27.2721 15.924C27.2507 14.6033 26.5762 13.2513 25.3598 12.6071Z" fill="#8CC84B"/>
</svg>
