<svg width="36" height="36" viewBox="0 0 36 36" fill="none" xmlns="http://www.w3.org/2000/svg">
<g clip-path="url(#clip0_46_270)">
<path d="M30.6 0H5.4C2.41766 0 0 2.41766 0 5.4V30.6C0 33.5823 2.41766 36 5.4 36H30.6C33.5823 36 36 33.5823 36 30.6V5.4C36 2.41766 33.5823 0 30.6 0Z" fill="#3178C6"/>
<path d="M16.3828 19.9686H20.8828V17.0858H8.29688V19.9686H12.7969V32.8358H16.3828V19.9686ZM22.2891 32.1326C22.8586 32.4279 23.5547 32.6459 24.3281 32.7936C25.1016 32.9412 25.9453 33.0115 26.7891 33.0115C27.6328 33.0115 28.4062 32.9342 29.1797 32.7725C29.9531 32.6108 30.5859 32.3436 31.1484 31.999C31.718 31.6264 32.2031 31.1553 32.4844 30.5225C32.7656 29.8897 32.9836 29.1865 32.9836 28.2725C32.9836 27.6326 32.8852 27.0772 32.6953 26.585C32.5055 26.0928 32.2313 25.6709 31.8516 25.3194C31.493 24.9467 31.0781 24.6162 30.5859 24.335C30.0938 24.0537 29.5312 23.7584 28.8984 23.4912C28.4344 23.3014 28.0547 23.1186 27.6328 22.9358C27.2672 22.7529 26.9508 22.5701 26.7188 22.3873C26.4586 22.1975 26.2617 22.0006 26.1211 21.7967C25.9805 21.5858 25.9102 21.3537 25.9102 21.0936C25.9102 20.8545 25.9727 20.6365 26.1 20.4397C26.2273 20.2428 26.4023 20.0811 26.6273 19.9404C26.8523 19.7998 27.1336 19.6944 27.4711 19.617C27.8016 19.5397 28.1672 19.5045 28.5961 19.5045C28.8914 19.5045 29.2008 19.5263 29.5102 19.5706C29.8336 19.6149 30.1641 19.6831 30.4945 19.7745C30.825 19.8659 31.1484 19.9784 31.4789 20.119C31.7883 20.2597 32.0766 20.4214 32.3227 20.6042V17.2995C31.7883 17.0956 31.1977 16.9409 30.5648 16.8425C29.932 16.744 29.2289 16.6948 28.3852 16.6948C27.5414 16.6948 26.768 16.7862 25.9945 16.962C25.2211 17.1378 24.5883 17.419 24.0258 17.8058C23.4563 18.1854 23.0414 18.6495 22.6898 19.2823C22.3594 19.8729 22.1977 20.5479 22.1977 21.3917C22.1977 22.4464 22.5 23.3604 23.1117 24.0636C23.7164 24.837 24.6586 25.3995 25.8539 25.962C26.3391 26.1589 26.768 26.3558 27.1898 26.5456C27.6117 26.7354 27.9633 26.9323 28.2445 27.1362C28.5469 27.3401 28.7859 27.5651 28.9477 27.8042C29.1234 28.0433 29.2148 28.3245 29.2148 28.6479C29.2148 28.8729 29.16 29.0839 29.0531 29.2808C28.9463 29.4776 28.7789 29.6464 28.5539 29.787C28.3289 29.9276 28.0547 30.0401 27.7102 30.1245C27.3797 30.2019 27.007 30.244 26.5148 30.244C25.7414 30.244 24.968 30.1104 24.2648 29.8433C23.4914 29.5761 22.7883 29.1753 22.2891 28.7576V32.1326Z" fill="white"/>
</g>
<defs>
<clipPath id="clip0_46_270">
<rect width="36" height="36" fill="white"/>
</clipPath>
</defs>
</svg>
